<svg width="14" height="14" viewBox="0 0 14 14" fill="none" xmlns="http://www.w3.org/2000/svg">
<path d="M13.4755 5.98665L11.9866 5.54221C11.8837 5.18279 11.7421 4.83558 11.5644 4.50665L12.2933 3.14221C12.3206 3.09071 12.3306 3.03176 12.3218 2.97411C12.313 2.91647 12.2859 2.8632 12.2444 2.82221L11.1822 1.75554C11.1412 1.71406 11.0879 1.6869 11.0303 1.6781C10.9726 1.66929 10.9137 1.6793 10.8622 1.70665L9.50661 2.4311C9.17444 2.24472 8.82267 2.09567 8.45772 1.98665L8.01328 0.515542C7.99448 0.461327 7.95896 0.414475 7.91184 0.38173C7.86472 0.348984 7.80843 0.332035 7.75106 0.33332H6.24884C6.19112 0.333589 6.135 0.352269 6.08863 0.386641C6.04227 0.421014 6.00809 0.469286 5.99106 0.524431L5.54661 1.9911C5.17862 2.09953 4.82384 2.2486 4.48884 2.43554L3.1555 1.71554C3.104 1.68819 3.04505 1.67818 2.9874 1.68698C2.92976 1.69579 2.87649 1.72295 2.8355 1.76443L1.7555 2.81776C1.71402 2.85875 1.68686 2.91202 1.67806 2.96967C1.66925 3.02731 1.67926 3.08626 1.70661 3.13776L2.42661 4.4711C2.23997 4.8047 2.09091 5.15797 1.98217 5.52443L0.511057 5.96888C0.455912 5.98591 0.40764 6.02009 0.373268 6.06645C0.338895 6.11282 0.320215 6.16894 0.319946 6.22665V7.72888C0.320215 7.78659 0.338895 7.84271 0.373268 7.88908C0.40764 7.93544 0.455912 7.96962 0.511057 7.98665L1.99106 8.4311C2.10099 8.79146 2.25002 9.13871 2.4355 9.46665L1.70661 10.8622C1.67926 10.9137 1.66925 10.9727 1.67806 11.0303C1.68686 11.088 1.71402 11.1412 1.7555 11.1822L2.81772 12.2444C2.85871 12.2859 2.91198 12.3131 2.96963 12.3219C3.02727 12.3307 3.08622 12.3207 3.13772 12.2933L4.51106 11.56C4.83593 11.7353 5.17862 11.8753 5.53328 11.9778L5.97772 13.4755C5.99475 13.5307 6.02894 13.579 6.0753 13.6133C6.12166 13.6477 6.17779 13.6664 6.2355 13.6667H7.73772C7.79544 13.6664 7.85156 13.6477 7.89792 13.6133C7.94429 13.579 7.97847 13.5307 7.9955 13.4755L8.43995 11.9733C8.79158 11.8704 9.13126 11.7303 9.45328 11.5555L10.8355 12.2933C10.887 12.3207 10.946 12.3307 11.0036 12.3219C11.0612 12.3131 11.1145 12.2859 11.1555 12.2444L12.2177 11.1822C12.2592 11.1412 12.2864 11.088 12.2952 11.0303C12.304 10.9727 12.294 10.9137 12.2666 10.8622L11.5288 9.48443C11.7054 9.16119 11.847 8.81999 11.9511 8.46665L13.4488 8.02221C13.504 8.00518 13.5523 7.97099 13.5866 7.92463C13.621 7.87827 13.6397 7.82214 13.6399 7.76443V6.24888C13.6426 6.19361 13.6282 6.13886 13.5988 6.09199C13.5694 6.04512 13.5264 6.00836 13.4755 5.98665ZM6.99995 9.44443C6.51648 9.44443 6.04387 9.30107 5.64189 9.03247C5.2399 8.76387 4.92659 8.3821 4.74157 7.93543C4.55656 7.48877 4.50815 6.99728 4.60247 6.5231C4.69679 6.04892 4.9296 5.61337 5.27146 5.2715C5.61332 4.92964 6.04888 4.69683 6.52306 4.60251C6.99723 4.50819 7.48873 4.5566 7.9354 4.74161C8.38206 4.92663 8.76383 5.23994 9.03243 5.64193C9.30103 6.04391 9.44439 6.51652 9.44439 6.99999C9.44439 7.64829 9.18685 8.27005 8.72843 8.72847C8.27001 9.18689 7.64825 9.44443 6.99995 9.44443Z" fill="#404040"/>
</svg>
