<svg width="16" height="16" viewBox="0 0 16 16" fill="none" xmlns="http://www.w3.org/2000/svg">
<path d="M11.475 0.5H2.16667C1.25 0.5 0.5 1.25 0.5 2.16667V13.8333C0.5 14.75 1.25 15.5 2.16667 15.5H13.8333C14.75 15.5 15.5 14.75 15.5 13.8333V4.525C15.5 4.08333 15.325 3.65833 15.0083 3.35L12.65 0.991667C12.3417 0.675 11.9167 0.5 11.475 0.5ZM8 13C6.61667 13 5.5 11.8833 5.5 10.5C5.5 9.11667 6.61667 8 8 8C9.38333 8 10.5 9.11667 10.5 10.5C10.5 11.8833 9.38333 13 8 13ZM9.66667 6.33333H3.83333C3.375 6.33333 3 5.95833 3 5.5V3.83333C3 3.375 3.375 3 3.83333 3H9.66667C10.125 3 10.5 3.375 10.5 3.83333V5.5C10.5 5.95833 10.125 6.33333 9.66667 6.33333Z" fill="#828282"/>
</svg>
