<svg width="21" height="21" viewBox="0 0 21 21" fill="none" xmlns="http://www.w3.org/2000/svg">
<path d="M14.7291 11.6361L20.5937 17.459L17.1353 20.8757L11.3124 15.0527V14.0944L13.7708 11.6361H14.7291ZM15.677 9.00065L14.6666 8.00065L9.677 13.0007V15.0527L3.81242 20.9173L0.395752 17.459L6.21867 11.6361H8.27075L9.08325 10.8236L5.08325 6.81315H3.72909L0.802002 3.85482L3.53117 1.12565L6.44783 4.04232V5.4069L10.4999 9.4069L13.2708 6.63607L12.2708 5.58398L13.6249 4.2194H10.8541L10.177 3.54232L13.6249 0.0839844L14.3124 0.771484V3.54232L15.677 2.16732L19.0937 5.58398C20.2291 6.72982 20.2291 8.5944 19.0937 9.72982L17.0416 7.63607L15.677 9.00065Z" fill="#828282"/>
</svg>
