<svg width="20" height="19" viewBox="0 0 20 19" fill="none" xmlns="http://www.w3.org/2000/svg">
<path d="M17 13.0005C16.2144 13.0011 15.4604 13.3099 14.9 13.8605L7.00003 10.3405V9.67048L14.9 6.14048C15.3948 6.6255 16.0423 6.92428 16.7324 6.98609C17.4225 7.0479 18.1128 6.86892 18.6859 6.47955C19.259 6.09018 19.6797 5.51442 19.8765 4.85007C20.0733 4.18572 20.034 3.47373 19.7654 2.83504C19.4968 2.19634 19.0154 1.67031 18.4029 1.34629C17.7905 1.02227 17.0848 0.920243 16.4056 1.05753C15.7265 1.19481 15.1158 1.56295 14.6773 2.09942C14.2388 2.63588 13.9995 3.3076 14 4.00048V4.34048L6.10003 7.86048C5.67839 7.44623 5.14378 7.16577 4.5633 7.05431C3.98282 6.94284 3.38235 7.00534 2.83726 7.23395C2.29218 7.46256 1.82677 7.8471 1.49947 8.33929C1.17217 8.83148 0.997559 9.4094 0.997559 10.0005C0.997559 10.5916 1.17217 11.1695 1.49947 11.6617C1.82677 12.1539 2.29218 12.5384 2.83726 12.767C3.38235 12.9956 3.98282 13.0581 4.5633 12.9467C5.14378 12.8352 5.67839 12.5547 6.10003 12.1405L14 15.6705V16.0005C14 16.5938 14.176 17.1738 14.5056 17.6672C14.8353 18.1605 15.3038 18.5451 15.852 18.7721C16.4002 18.9992 17.0034 19.0586 17.5853 18.9428C18.1672 18.8271 18.7018 18.5414 19.1214 18.1218C19.5409 17.7022 19.8266 17.1677 19.9424 16.5858C20.0581 16.0038 19.9987 15.4006 19.7717 14.8524C19.5446 14.3043 19.1601 13.8357 18.6667 13.5061C18.1734 13.1764 17.5934 13.0005 17 13.0005Z" fill="#404040"/>
</svg>
