<svg width="15" height="20" viewBox="0 0 15 20" fill="none" xmlns="http://www.w3.org/2000/svg">
<path fill-rule="evenodd" clip-rule="evenodd" d="M0 3.25C0 2.58696 0.263392 1.95107 0.732233 1.48223C1.20107 1.01339 1.83696 0.75 2.5 0.75C2.5 1.74456 2.89509 2.69839 3.59835 3.40165C4.30161 4.10491 5.25544 4.5 6.25 4.5H8.75C9.74456 4.5 10.6984 4.10491 11.4017 3.40165C12.1049 2.69839 12.5 1.74456 12.5 0.75C13.163 0.75 13.7989 1.01339 14.2678 1.48223C14.7366 1.95107 15 2.58696 15 3.25V17C15 17.663 14.7366 18.2989 14.2678 18.7678C13.7989 19.2366 13.163 19.5 12.5 19.5H2.5C1.83696 19.5 1.20107 19.2366 0.732233 18.7678C0.263392 18.2989 0 17.663 0 17V3.25ZM3.75 8.25C3.41848 8.25 3.10054 8.3817 2.86612 8.61612C2.6317 8.85054 2.5 9.16848 2.5 9.5C2.5 9.83152 2.6317 10.1495 2.86612 10.3839C3.10054 10.6183 3.41848 10.75 3.75 10.75H3.7625C4.09402 10.75 4.41196 10.6183 4.64638 10.3839C4.8808 10.1495 5.0125 9.83152 5.0125 9.5C5.0125 9.16848 4.8808 8.85054 4.64638 8.61612C4.41196 8.3817 4.09402 8.25 3.7625 8.25H3.75ZM7.5 8.25C7.16848 8.25 6.85054 8.3817 6.61612 8.61612C6.3817 8.85054 6.25 9.16848 6.25 9.5C6.25 9.83152 6.3817 10.1495 6.61612 10.3839C6.85054 10.6183 7.16848 10.75 7.5 10.75H11.25C11.5815 10.75 11.8995 10.6183 12.1339 10.3839C12.3683 10.1495 12.5 9.83152 12.5 9.5C12.5 9.16848 12.3683 8.85054 12.1339 8.61612C11.8995 8.3817 11.5815 8.25 11.25 8.25H7.5ZM3.75 13.25C3.41848 13.25 3.10054 13.3817 2.86612 13.6161C2.6317 13.8505 2.5 14.1685 2.5 14.5C2.5 14.8315 2.6317 15.1495 2.86612 15.3839C3.10054 15.6183 3.41848 15.75 3.75 15.75H3.7625C4.09402 15.75 4.41196 15.6183 4.64638 15.3839C4.8808 15.1495 5.0125 14.8315 5.0125 14.5C5.0125 14.1685 4.8808 13.8505 4.64638 13.6161C4.41196 13.3817 4.09402 13.25 3.7625 13.25H3.75ZM7.5 13.25C7.16848 13.25 6.85054 13.3817 6.61612 13.6161C6.3817 13.8505 6.25 14.1685 6.25 14.5C6.25 14.8315 6.3817 15.1495 6.61612 15.3839C6.85054 15.6183 7.16848 15.75 7.5 15.75H11.25C11.5815 15.75 11.8995 15.6183 12.1339 15.3839C12.3683 15.1495 12.5 14.8315 12.5 14.5C12.5 14.1685 12.3683 13.8505 12.1339 13.6161C11.8995 13.3817 11.5815 13.25 11.25 13.25H7.5Z" fill="#828282"/>
</svg>
