<svg width="20" height="20" viewBox="0 0 20 20" fill="none" xmlns="http://www.w3.org/2000/svg">
<path d="M19.375 0C19.2092 0 19.0503 0.065848 18.9331 0.183058C18.8158 0.300269 18.75 0.45924 18.75 0.625V19.375C18.75 19.5408 18.8158 19.6997 18.9331 19.8169C19.0503 19.9342 19.2092 20 19.375 20C19.5408 20 19.6997 19.9342 19.8169 19.8169C19.9342 19.6997 20 19.5408 20 19.375V0.625C20 0.45924 19.9342 0.300269 19.8169 0.183058C19.6997 0.065848 19.5408 0 19.375 0V0ZM17.5 1.875C17.5 1.70924 17.4342 1.55027 17.3169 1.43306C17.1997 1.31585 17.0408 1.25 16.875 1.25H11.875C11.7092 1.25 11.5503 1.31585 11.4331 1.43306C11.3158 1.55027 11.25 1.70924 11.25 1.875V3.125C11.25 3.29076 11.3158 3.44973 11.4331 3.56694C11.5503 3.68415 11.7092 3.75 11.875 3.75H16.875C17.0408 3.75 17.1997 3.68415 17.3169 3.56694C17.4342 3.44973 17.5 3.29076 17.5 3.125V1.875ZM15 6.875C15 6.70924 14.9342 6.55027 14.8169 6.43306C14.6997 6.31585 14.5408 6.25 14.375 6.25H5.625C5.45924 6.25 5.30027 6.31585 5.18306 6.43306C5.06585 6.55027 5 6.70924 5 6.875V8.125C5 8.29076 5.06585 8.44973 5.18306 8.56694C5.30027 8.68415 5.45924 8.75 5.625 8.75H14.375C14.5408 8.75 14.6997 8.68415 14.8169 8.56694C14.9342 8.44973 15 8.29076 15 8.125V6.875ZM12.5 11.875C12.5 11.7092 12.4342 11.5503 12.3169 11.4331C12.1997 11.3158 12.0408 11.25 11.875 11.25H4.375C4.20924 11.25 4.05027 11.3158 3.93306 11.4331C3.81585 11.5503 3.75 11.7092 3.75 11.875V13.125C3.75 13.2908 3.81585 13.4497 3.93306 13.5669C4.05027 13.6842 4.20924 13.75 4.375 13.75H11.875C12.0408 13.75 12.1997 13.6842 12.3169 13.5669C12.4342 13.4497 12.5 13.2908 12.5 13.125V11.875ZM10 16.875C10 16.7092 9.93415 16.5503 9.81694 16.4331C9.69973 16.3158 9.54076 16.25 9.375 16.25H0.625C0.45924 16.25 0.300268 16.3158 0.183058 16.4331C0.0658474 16.5503 0 16.7092 0 16.875V18.125C0 18.2908 0.0658474 18.4497 0.183058 18.5669C0.300268 18.6842 0.45924 18.75 0.625 18.75H9.375C9.54076 18.75 9.69973 18.6842 9.81694 18.5669C9.93415 18.4497 10 18.2908 10 18.125V16.875Z" fill="#404040"/>
</svg>
