<svg width="24" height="24" viewBox="0 0 24 24" fill="none" xmlns="http://www.w3.org/2000/svg">
<path d="M7.31494 13.8639C7.3876 13.9365 7.50713 13.9365 7.57979 13.8639L9.96572 11.4779L11.9837 13.4982C12.0563 13.5709 12.1759 13.5709 12.2485 13.4982L17.5524 8.18965C17.6251 8.11699 17.6251 7.99746 17.5524 7.92481L16.6899 7.0623C16.6173 6.98965 16.4978 6.98965 16.4251 7.0623L12.1173 11.3748L10.0993 9.35449C10.0267 9.28184 9.90713 9.28184 9.83447 9.35449L6.45244 12.7365C6.37979 12.8092 6.37979 12.9287 6.45244 13.0014L7.31494 13.8639Z" fill="#404040"/>
<path d="M21.1875 3.75H12.8438V2.25C12.8438 2.14688 12.7594 2.0625 12.6562 2.0625H11.3438C11.2406 2.0625 11.1562 2.14688 11.1562 2.25V3.75H2.8125C2.39766 3.75 2.0625 4.08516 2.0625 4.5V16.6875C2.0625 17.1023 2.39766 17.4375 2.8125 17.4375H11.1656V18.1875L7.30313 20.7211C7.21641 20.7773 7.19297 20.8922 7.24922 20.9789L7.95938 22.0852V22.0875C8.01562 22.1742 8.13281 22.1977 8.21953 22.1414L12 19.6617L15.7805 22.1414C15.8672 22.1977 15.9844 22.1742 16.0406 22.0875V22.0852L16.7508 20.9789C16.807 20.8922 16.7813 20.7773 16.6969 20.7211L12.8438 18.1945V17.4375H21.1875C21.6023 17.4375 21.9375 17.1023 21.9375 16.6875V4.5C21.9375 4.08516 21.6023 3.75 21.1875 3.75ZM20.25 15.75H3.75V5.4375H20.25V15.75Z" fill="#404040"/>
</svg>
