<svg width="18" height="18" viewBox="0 0 18 18" fill="none" xmlns="http://www.w3.org/2000/svg">
<path d="M0 13.8462H4.26923V4.26923H13.8462V0H2.13462C0.711538 0 0 0.673077 0 2.01923" fill="#4285F4"/>
<path d="M13.7308 0V4.38462H18V2.01923C18 0.673077 17.3269 0 15.9808 0" fill="#1967D2"/>
<path d="M13.7308 4.26923H18V13.7308H13.7308" fill="#FBBC04"/>
<path d="M0 13.7308V15.9808C0 17.3269 0.673077 18 2.01923 18H4.38462V13.7308" fill="#188038"/>
<path d="M4.26923 13.7308H13.7308V18H4.26923" fill="#34A853"/>
<path d="M13.7308 18V13.7308H18" fill="#EA4335"/>
<path d="M6 7.44231C6.06021 7.211 6.19304 6.99949 6.38338 6.83184C6.57372 6.66418 6.81394 6.54711 7.07672 6.49392C7.33949 6.44074 7.61429 6.45359 7.86984 6.531C8.1254 6.60841 8.35147 6.74728 8.52234 6.93182C8.69321 7.11637 8.80203 7.33917 8.83642 7.5749C8.87081 7.81063 8.82939 8.04983 8.71687 8.26529C8.60435 8.48075 8.42525 8.66383 8.19993 8.79372C7.97462 8.9236 7.71212 8.99507 7.44231 9M7.44231 9H6.92308M7.44231 9C7.71141 9.00754 7.97309 9.0812 8.19772 9.21265C8.42236 9.3441 8.60099 9.5281 8.71339 9.74382C8.8258 9.95954 8.8675 10.1984 8.83378 10.4333C8.80005 10.6682 8.69225 10.8898 8.52256 11.0731C8.35287 11.2564 8.12808 11.3939 7.87362 11.4703C7.61915 11.5466 7.34518 11.5586 7.08269 11.505C6.8202 11.4514 6.57968 11.3342 6.38834 11.1668C6.197 10.9994 6.06248 10.7884 6 10.5577M9.80769 7.55769L11.3654 6.46154H11.5962V6.05769V12" stroke="#4285F4" stroke-linejoin="bevel"/>
</svg>
