<svg width="20" height="20" viewBox="0 0 20 20" fill="none" xmlns="http://www.w3.org/2000/svg">
<g clip-path="url(#clip0_1542_6432)">
<path d="M10 20C15.5228 20 20 15.5228 20 10C20 4.47715 15.5228 0 10 0C4.47715 0 0 4.47715 0 10C0 15.5228 4.47715 20 10 20Z" fill="#FF7A59"/>
<path fill-rule="evenodd" clip-rule="evenodd" d="M12.1836 12.2059C11.4369 12.2059 10.8312 11.6068 10.8312 10.8678C10.8312 10.1287 11.4367 9.52949 12.1836 9.52949C12.9304 9.52949 13.5363 10.1285 13.5363 10.8678C13.5363 11.607 12.9308 12.2059 12.1836 12.2059ZM12.5886 8.29141V7.1C12.747 7.02746 12.8814 6.91118 12.976 6.76486C13.0706 6.61853 13.1214 6.44824 13.1224 6.27402V6.24648C13.1224 5.74297 12.706 5.33125 12.1976 5.33125H12.1697C11.6619 5.33125 11.2449 5.74316 11.2449 6.24648V6.27402C11.246 6.44823 11.2968 6.6185 11.3914 6.76482C11.486 6.91114 11.6203 7.02742 11.7787 7.1V8.29141C11.3226 8.3602 10.8926 8.54735 10.5314 8.83418L7.22869 6.2918C7.2518 6.20816 7.26421 6.12192 7.2656 6.03516C7.2656 5.46465 6.799 5.00156 6.22263 5C5.64627 4.99844 5.17869 5.46074 5.1781 6.03145C5.17752 6.60215 5.64392 7.06426 6.22029 7.06523C6.40082 7.06446 6.57804 7.01673 6.73455 6.92676L9.98416 9.42871C9.69181 9.86417 9.53908 10.3784 9.5463 10.9028C9.55353 11.4272 9.72036 11.937 10.0246 12.3643L9.03591 13.3428C8.91894 13.3061 8.79541 13.2952 8.67384 13.3109C8.55226 13.3266 8.43553 13.3684 8.33168 13.4336C8.22783 13.4987 8.13933 13.5856 8.07229 13.6882C8.00525 13.7908 7.96125 13.9067 7.94333 14.028C7.92541 14.1493 7.93399 14.273 7.96848 14.3906C8.00297 14.5082 8.06255 14.617 8.14312 14.7094C8.22369 14.8018 8.32333 14.8756 8.43518 14.9258C8.54702 14.9759 8.66842 15.0013 8.79099 15C9.26443 15 9.64841 14.6199 9.64841 14.1514C9.64757 14.069 9.63441 13.9872 9.60935 13.9088L10.5859 12.9416C11.0456 13.29 11.6067 13.4785 12.1836 13.4781C13.6408 13.4781 14.8215 12.3096 14.8215 10.8678C14.8215 9.5627 13.8523 8.48496 12.5885 8.29141" fill="white"/>
</g>
<defs>
<clipPath id="clip0_1542_6432">
<rect width="20" height="20" fill="white"/>
</clipPath>
</defs>
</svg>
