<svg width="18" height="18" viewBox="0 0 18 18" fill="none" xmlns="http://www.w3.org/2000/svg">
<path d="M15.75 1.125H6.75C6.12868 1.125 5.625 1.62868 5.625 2.25V15.75C5.625 16.3713 6.12868 16.875 6.75 16.875H15.75C16.3713 16.875 16.875 16.3713 16.875 15.75V2.25C16.875 1.62868 16.3713 1.125 15.75 1.125Z" fill="#1066B5"/>
<path d="M15.75 1.125H6.75C6.12868 1.125 5.625 1.62868 5.625 2.25V15.75C5.625 16.3713 6.12868 16.875 6.75 16.875H15.75C16.3713 16.875 16.875 16.3713 16.875 15.75V2.25C16.875 1.62868 16.3713 1.125 15.75 1.125Z" fill="url(#paint0_linear_1531_8235)"/>
<path d="M11.25 2.8125H5.625V8.4375H11.25V2.8125Z" fill="#32A9E7"/>
<path d="M11.25 8.4375H5.625V14.0625H11.25V8.4375Z" fill="#167EB4"/>
<path d="M16.875 8.4375H11.25V14.0625H16.875V8.4375Z" fill="#32A9E7"/>
<path d="M16.875 2.8125H11.25V8.4375H16.875V2.8125Z" fill="#58D9FD"/>
<mask id="mask0_1531_8235" style="mask-type:alpha" maskUnits="userSpaceOnUse" x="4" y="7" width="14" height="10">
<path d="M4.5 7.875H16.875C17.4963 7.875 18 8.37866 18 9V15.75C18 16.3713 17.4963 16.875 16.875 16.875H5.625C5.00368 16.875 4.5 16.3713 4.5 15.75V7.875Z" fill="url(#paint1_linear_1531_8235)"/>
</mask>
<g mask="url(#mask0_1531_8235)">
<path d="M18 7.875V10.125H16.875V7.875H18Z" fill="#135298"/>
<path d="M18 16.875V9L3.9375 16.875H18Z" fill="url(#paint2_linear_1531_8235)"/>
<path d="M4.5 16.875V9L18.5625 16.875H4.5Z" fill="url(#paint3_linear_1531_8235)"/>
</g>
<path d="M4.5 6.75C4.5 5.81799 5.25552 5.0625 6.1875 5.0625H9.5625C10.4945 5.0625 11.25 5.81799 11.25 6.75V13.5C11.25 14.432 10.4945 15.1875 9.5625 15.1875H4.5V6.75Z" fill="black" fill-opacity="0.3"/>
<path d="M9 3.9375H1.125C0.50368 3.9375 0 4.44118 0 5.0625V12.9375C0 13.5588 0.50368 14.0625 1.125 14.0625H9C9.62132 14.0625 10.125 13.5588 10.125 12.9375V5.0625C10.125 4.44118 9.62132 3.9375 9 3.9375Z" fill="url(#paint4_linear_1531_8235)"/>
<path d="M7.875 9.03898V8.94544C7.875 7.32499 6.70905 6.1875 5.0714 6.1875C3.42484 6.1875 2.25 7.33275 2.25 8.96102V9.05456C2.25 10.675 3.41594 11.8125 5.0625 11.8125C6.70016 11.8125 7.875 10.6672 7.875 9.03898ZM6.54885 9.05456C6.54885 10.1297 5.94366 10.7763 5.0714 10.7763C4.19917 10.7763 3.58505 10.1141 3.58505 9.03898V8.94544C3.58505 7.87033 4.19027 7.22368 5.0625 7.22368C5.92583 7.22368 6.54885 7.88591 6.54885 8.96102V9.05456Z" fill="white"/>
<defs>
<linearGradient id="paint0_linear_1531_8235" x1="5.625" y1="9" x2="16.875" y2="9" gradientUnits="userSpaceOnUse">
<stop stop-color="#064484"/>
<stop offset="1" stop-color="#0F65B5"/>
</linearGradient>
<linearGradient id="paint1_linear_1531_8235" x1="4.5" y1="15.0577" x2="18" y2="15.0577" gradientUnits="userSpaceOnUse">
<stop stop-color="#1B366F"/>
<stop offset="1" stop-color="#2657B0"/>
</linearGradient>
<linearGradient id="paint2_linear_1531_8235" x1="18" y1="12.9375" x2="4.5" y2="12.9375" gradientUnits="userSpaceOnUse">
<stop stop-color="#44DCFD"/>
<stop offset="0.453125" stop-color="#259ED0"/>
</linearGradient>
<linearGradient id="paint3_linear_1531_8235" x1="4.5" y1="12.9375" x2="18" y2="12.9375" gradientUnits="userSpaceOnUse">
<stop stop-color="#259ED0"/>
<stop offset="1" stop-color="#44DCFD"/>
</linearGradient>
<linearGradient id="paint4_linear_1531_8235" x1="0" y1="9" x2="10.125" y2="9" gradientUnits="userSpaceOnUse">
<stop stop-color="#064484"/>
<stop offset="1" stop-color="#0F65B5"/>
</linearGradient>
</defs>
</svg>
