<svg width="200" height="200" viewBox="0 0 200 200" fill="none" xmlns="http://www.w3.org/2000/svg">
<path opacity="0.4" d="M134.917 16.6666H65.1666C34.8332 16.6666 16.75 34.75 16.75 65.0833V134.833C16.75 165.167 34.8332 183.25 65.1666 183.25H134.917C165.25 183.25 183.334 165.167 183.334 134.833V65.0833C183.334 34.75 165.25 16.6666 134.917 16.6666Z" fill="#A9ABAD"/>
<path d="M130.159 59.1664L111.076 52.8335C106.243 51.1668 101.326 51.833 97.576 54.4997C93.826 57.1664 91.7427 61.6666 91.7427 66.75V71.8332V106.667C88.4094 104.833 84.6585 103.75 80.5754 103.75C67.7421 103.75 57.2422 114.25 57.2422 127.083C57.2422 139.917 67.7421 150.417 80.5754 150.417C93.4085 150.417 103.909 139.917 103.909 127.083V89.1667C103.992 89.25 104.159 89.25 104.243 89.3334L123.325 95.6667C125.075 96.25 126.909 96.5834 128.659 96.5834C131.659 96.5834 134.492 95.75 136.825 94C140.575 91.3334 142.659 86.8334 142.659 81.7499V76.6667C142.659 69.0834 137.325 61.583 130.159 59.1664ZM80.5754 138.25C74.4088 138.25 69.4924 133.25 69.4924 127.167C69.4924 121 74.4921 116 80.5754 116C86.7419 116 91.7427 121 91.7427 127.167C91.7427 133.25 86.7419 138.25 80.5754 138.25Z" fill="#292D32"/>
</svg>
