<svg xmlns="http://www.w3.org/2000/svg"
viewBox="0 0 38 38"
fill="none">
<path
d="M28.4987 9.49971C28.2018 9.20288 27.7992 9.03613 27.3793 9.03613C26.9595 9.03613 26.5568 9.20288 26.2599 9.49971L18.9987 16.7609L11.7376 9.49971C11.4406 9.20288 11.038 9.03613 10.6182 9.03613C10.1983 9.03613 9.79565 9.20288 9.49874 9.49971C9.20191 9.79663 9.03516 10.1993 9.03516 10.6191C9.03516 11.039 9.20191 11.4416 9.49874 11.7385L16.7599 18.9997L9.49874 26.2609C9.20191 26.5578 9.03516 26.9605 9.03516 27.3803C9.03516 27.8001 9.20191 28.2028 9.49874 28.4997C9.79565 28.7965 10.1983 28.9633 10.6182 28.9633C11.038 28.9633 11.4406 28.7965 11.7376 28.4997L18.9987 21.2385L26.2599 28.4997C26.5568 28.7965 26.9595 28.9633 27.3793 28.9633C27.7992 28.9633 28.2018 28.7965 28.4987 28.4997C28.7956 28.2028 28.9623 27.8001 28.9623 27.3803C28.9623 26.9605 28.7956 26.5578 28.4987 26.2609L21.2376 18.9997L28.4987 11.7385C28.7956 11.4416 28.9623 11.039 28.9623 10.6191C28.9623 10.1993 28.7956 9.79663 28.4987 9.49971Z"
fill="#374957" />
</svg>