<svg width="200" height="200" viewBox="0 0 200 200" fill="none" xmlns="http://www.w3.org/2000/svg">
<path d="M183.331 83.3333V125C183.331 166.667 166.664 183.333 124.997 183.333H74.9974C33.3307 183.333 16.6641 166.667 16.6641 125V75C16.6641 33.3333 33.3307 16.6666 74.9974 16.6666H116.664" fill="#DDDDDE"/>
<path d="M183.331 83.3333V125C183.331 166.667 166.664 183.333 124.997 183.333H74.9974C33.3307 183.333 16.6641 166.667 16.6641 125V75C16.6641 33.3333 33.3307 16.6666 74.9974 16.6666H116.664" stroke="#292D32" stroke-width="10" stroke-linecap="round" stroke-linejoin="round"/>
<path d="M183.331 83.3333H149.997C124.997 83.3333 116.664 75 116.664 50V16.6666L183.331 83.3333Z" stroke="#292D32" stroke-width="10" stroke-linecap="round" stroke-linejoin="round"/>
</svg>
