<svg width="56" height="56" viewBox="0 0 56 56" fill="none" xmlns="http://www.w3.org/2000/svg">
<rect x="0.5" y="0.5" width="55" height="55" rx="9.5" fill="white" stroke="#DBE4FF"/>
<path d="M9 38.2308H18.0128V18.0128H38.2308V9H13.5064C10.5021 9 9 10.4209 9 13.2628" fill="#4285F4"/>
<path d="M37.9883 9V18.2564H47.0011V13.2628C47.0011 10.4209 45.5802 9 42.7383 9" fill="#1967D2"/>
<path d="M37.9883 18.0137H47.0011V37.988H37.9883" fill="#FBBC04"/>
<path d="M9 37.9863V42.7363C9 45.5782 10.4209 46.9991 13.2628 46.9991H18.2564V37.9863" fill="#188038"/>
<path d="M18.0117 37.9863H37.9861V46.9991H18.0117" fill="#34A853"/>
<path d="M37.9883 46.9991V37.9863H47.0011" fill="#EA4335"/>
<path d="M21.668 24.7141C21.7951 24.2258 22.0755 23.7793 22.4773 23.4253C22.8792 23.0714 23.3863 22.8242 23.941 22.7119C24.4958 22.5997 25.0759 22.6268 25.6154 22.7902C26.1549 22.9536 26.6322 23.2468 26.9929 23.6364C27.3536 24.026 27.5834 24.4964 27.656 24.994C27.7286 25.4917 27.6411 25.9966 27.4036 26.4515C27.166 26.9064 26.7879 27.2929 26.3123 27.5671C25.8366 27.8413 25.2825 27.9921 24.7128 28.0026M24.7128 28.0026H23.6167M24.7128 28.0026C25.281 28.0185 25.8334 28.174 26.3076 28.4515C26.7818 28.729 27.1589 29.1174 27.3962 29.5728C27.6335 30.0282 27.7216 30.5324 27.6504 31.0284C27.5792 31.5243 27.3516 31.9922 26.9934 32.3791C26.6351 32.766 26.1606 33.0564 25.6234 33.2176C25.0862 33.3787 24.5078 33.4041 23.9536 33.2909C23.3995 33.1776 22.8917 32.9303 22.4878 32.5769C22.0838 32.2235 21.7999 31.778 21.668 31.291M29.7064 24.9577L32.9949 22.6436H33.4821V21.791V34.3359" stroke="#4285F4" stroke-linejoin="bevel"/>
</svg>
