<svg width="56" height="56" viewBox="0 0 56 56" fill="none" xmlns="http://www.w3.org/2000/svg">
<rect x="0.5" y="0.5" width="55" height="55" rx="9.5" fill="#F7E1DC" stroke="#F2D0C8"/>
<g clip-path="url(#clip0_3008_6993)">
<path d="M28 47C38.4934 47 47 38.4934 47 28C47 17.5066 38.4934 9 28 9C17.5066 9 9 17.5066 9 28C9 38.4934 17.5066 47 28 47Z" fill="#FF7A59"/>
<path fill-rule="evenodd" clip-rule="evenodd" d="M32.1502 32.1911C30.7315 32.1911 29.5808 31.053 29.5808 29.6488C29.5808 28.2446 30.7312 27.106 32.1502 27.106C33.5693 27.106 34.7204 28.2442 34.7204 29.6488C34.7204 31.0534 33.57 32.1911 32.1502 32.1911ZM32.9199 24.7537V22.49C33.2208 22.3522 33.4762 22.1313 33.6559 21.8532C33.8355 21.5752 33.9321 21.2517 33.9341 20.9207V20.8683C33.9341 19.9116 33.1429 19.1294 32.177 19.1294H32.1239C31.159 19.1294 30.3668 19.912 30.3668 20.8683V20.9207C30.3689 21.2516 30.4654 21.5752 30.6451 21.8532C30.8248 22.1312 31.0801 22.3521 31.381 22.49V24.7537C30.5145 24.8844 29.6974 25.24 29.0112 25.7849L22.736 20.9544C22.7799 20.7955 22.8034 20.6317 22.8061 20.4668C22.8061 19.3828 21.9196 18.503 20.8245 18.5C19.7294 18.497 18.841 19.3754 18.8398 20.4598C18.8387 21.5441 19.7249 22.4221 20.82 22.424C21.163 22.4225 21.4997 22.3318 21.7971 22.1608L27.9713 26.9146C27.4159 27.7419 27.1257 28.7189 27.1394 29.7153C27.1532 30.7117 27.4701 31.6803 28.0482 32.4921L26.1697 34.3513C25.9474 34.2816 25.7127 34.261 25.4817 34.2907C25.2507 34.3205 25.029 34.4 24.8316 34.5238C24.6343 34.6475 24.4662 34.8126 24.3388 35.0076C24.2114 35.2025 24.1278 35.4228 24.0938 35.6532C24.0597 35.8836 24.076 36.1187 24.1416 36.3422C24.2071 36.5657 24.3203 36.7723 24.4734 36.9478C24.6265 37.1234 24.8158 37.2636 25.0283 37.359C25.2408 37.4543 25.4714 37.5024 25.7043 37.5C26.6039 37.5 27.3334 36.7779 27.3334 35.8876C27.3318 35.7311 27.3068 35.5758 27.2592 35.4267L29.1147 33.5891C29.9881 34.2511 31.0542 34.6091 32.1502 34.6084C34.919 34.6084 37.1622 32.3882 37.1622 29.6488C37.1622 27.1691 35.3209 25.1214 32.9195 24.7537" fill="white"/>
</g>
<defs>
<clipPath id="clip0_3008_6993">
<rect width="38" height="38" fill="white" transform="translate(9 9)"/>
</clipPath>
</defs>
</svg>
