<svg width="56" height="56" viewBox="0 0 56 56" fill="none" xmlns="http://www.w3.org/2000/svg">
<rect width="56" height="56" rx="10" fill="#D9EDFF"/>
<rect x="0.5" y="0.5" width="55" height="55" rx="9.5" stroke="#0A5299" stroke-opacity="0.22"/>
<path d="M42.25 11.375H23.25C21.9383 11.375 20.875 12.4383 20.875 13.75V42.25C20.875 43.5617 21.9383 44.625 23.25 44.625H42.25C43.5617 44.625 44.625 43.5617 44.625 42.25V13.75C44.625 12.4383 43.5617 11.375 42.25 11.375Z" fill="#1066B5"/>
<path d="M42.25 11.375H23.25C21.9383 11.375 20.875 12.4383 20.875 13.75V42.25C20.875 43.5617 21.9383 44.625 23.25 44.625H42.25C43.5617 44.625 44.625 43.5617 44.625 42.25V13.75C44.625 12.4383 43.5617 11.375 42.25 11.375Z" fill="url(#paint0_linear_3008_6999)"/>
<path d="M32.75 14.9375H20.875V26.8125H32.75V14.9375Z" fill="#32A9E7"/>
<path d="M32.75 26.8125H20.875V38.6875H32.75V26.8125Z" fill="#167EB4"/>
<path d="M44.625 26.8125H32.75V38.6875H44.625V26.8125Z" fill="#32A9E7"/>
<path d="M44.625 14.9375H32.75V26.8125H44.625V14.9375Z" fill="#58D9FD"/>
<mask id="mask0_3008_6999" style="mask-type:alpha" maskUnits="userSpaceOnUse" x="18" y="25" width="29" height="20">
<path d="M18.5 25.625H44.625C45.9367 25.625 47 26.6883 47 28V42.25C47 43.5617 45.9367 44.625 44.625 44.625H20.875C19.5633 44.625 18.5 43.5617 18.5 42.25V25.625Z" fill="url(#paint1_linear_3008_6999)"/>
</mask>
<g mask="url(#mask0_3008_6999)">
<path d="M47 25.625V30.375H44.625V25.625H47Z" fill="#135298"/>
<path d="M47 44.625V28L17.3125 44.625H47Z" fill="url(#paint2_linear_3008_6999)"/>
<path d="M18.5 44.625V28L48.1875 44.625H18.5Z" fill="url(#paint3_linear_3008_6999)"/>
</g>
<path d="M18.5 23.25C18.5 21.2824 20.095 19.6875 22.0625 19.6875H29.1875C31.1551 19.6875 32.75 21.2824 32.75 23.25V37.5C32.75 39.4676 31.1551 41.0625 29.1875 41.0625H18.5V23.25Z" fill="black" fill-opacity="0.3"/>
<path d="M28 17.3125H11.375C10.0633 17.3125 9 18.3758 9 19.6875V36.3125C9 37.6242 10.0633 38.6875 11.375 38.6875H28C29.3117 38.6875 30.375 37.6242 30.375 36.3125V19.6875C30.375 18.3758 29.3117 17.3125 28 17.3125Z" fill="url(#paint4_linear_3008_6999)"/>
<path d="M25.625 28.0823V27.8848C25.625 24.4639 23.1635 22.0625 19.7063 22.0625C16.2302 22.0625 13.75 24.4803 13.75 27.9177V28.1152C13.75 31.5361 16.2114 33.9375 19.6875 33.9375C23.1448 33.9375 25.625 31.5197 25.625 28.0823ZM22.8253 28.1152C22.8253 30.3849 21.5477 31.75 19.7063 31.75C17.8649 31.75 16.5684 30.352 16.5684 28.0823V27.8848C16.5684 25.6151 17.8461 24.25 19.6875 24.25C21.5101 24.25 22.8253 25.648 22.8253 27.9177V28.1152Z" fill="white"/>
<defs>
<linearGradient id="paint0_linear_3008_6999" x1="20.875" y1="28" x2="44.625" y2="28" gradientUnits="userSpaceOnUse">
<stop stop-color="#064484"/>
<stop offset="1" stop-color="#0F65B5"/>
</linearGradient>
<linearGradient id="paint1_linear_3008_6999" x1="18.5" y1="40.7884" x2="47" y2="40.7884" gradientUnits="userSpaceOnUse">
<stop stop-color="#1B366F"/>
<stop offset="1" stop-color="#2657B0"/>
</linearGradient>
<linearGradient id="paint2_linear_3008_6999" x1="47" y1="36.3125" x2="18.5" y2="36.3125" gradientUnits="userSpaceOnUse">
<stop stop-color="#44DCFD"/>
<stop offset="0.453125" stop-color="#259ED0"/>
</linearGradient>
<linearGradient id="paint3_linear_3008_6999" x1="18.5" y1="36.3125" x2="47" y2="36.3125" gradientUnits="userSpaceOnUse">
<stop stop-color="#259ED0"/>
<stop offset="1" stop-color="#44DCFD"/>
</linearGradient>
<linearGradient id="paint4_linear_3008_6999" x1="9" y1="28" x2="30.375" y2="28" gradientUnits="userSpaceOnUse">
<stop stop-color="#064484"/>
<stop offset="1" stop-color="#0F65B5"/>
</linearGradient>
</defs>
</svg>
