<svg
xmlns="http://www.w3.org/2000/svg"
viewBox="0 0 20 20"
fill="none">
<g
clip-path="url(#clip0_1016_10860)">
<path
d="M18.5995 3.69251L7.08368 15.2075C7.00625 15.2852 6.91424 15.3469 6.81292 15.389C6.71161 15.4311 6.60297 15.4527 6.49326 15.4527C6.38355 15.4527 6.27492 15.4311 6.1736 15.389C6.07228 15.3469 5.98027 15.2852 5.90285 15.2075L1.44951 10.75C1.37209 10.6723 1.28008 10.6106 1.17876 10.5685C1.07744 10.5264 0.968807 10.5048 0.859095 10.5048C0.749384 10.5048 0.640752 10.5264 0.539433 10.5685C0.438115 10.6106 0.346103 10.6723 0.268678 10.75C0.190948 10.8274 0.129271 10.9194 0.0871861 11.0208C0.0451014 11.1221 0.0234375 11.2307 0.0234375 11.3404C0.0234375 11.4501 0.0451014 11.5588 0.0871861 11.6601C0.129271 11.7614 0.190948 11.8534 0.268678 11.9308L4.72368 16.385C5.19364 16.8541 5.83051 17.1175 6.49451 17.1175C7.15851 17.1175 7.79539 16.8541 8.26535 16.385L19.7803 4.87251C19.858 4.7951 19.9195 4.70314 19.9615 4.6019C20.0035 4.50065 20.0252 4.39212 20.0252 4.28251C20.0252 4.17289 20.0035 4.06436 19.9615 3.96312C19.9195 3.86188 19.858 3.76992 19.7803 3.69251C19.7029 3.61478 19.6109 3.5531 19.5096 3.51101C19.4083 3.46893 19.2996 3.44727 19.1899 3.44727C19.0802 3.44727 18.9716 3.46893 18.8703 3.51101C18.7689 3.5531 18.6769 3.61478 18.5995 3.69251Z"
fill="white" />
</g>
<defs>
<clippath
id="clip0_1016_10860">
<rect
width="20"
height="20"
fill="white" />
</clippath>
</defs>
</svg>